# Blender 4.2.2 LTS
# www.blender.org
o Cube
v -1.000000 -1.000000 1.000000
v -1.000000 1.000000 1.000000
v -1.000000 -1.000000 -1.000000
v -1.000000 1.000000 -1.000000
v 1.000000 -1.000000 1.000000
v 1.000000 1.000000 1.000000
v 1.000000 -1.000000 -1.000000
v 1.000000 1.000000 -1.000000
vn -1.0000 -0.0000 -0.0000
vn -0.0000 -0.0000 -1.0000
vn 1.0000 -0.0000 -0.0000
vn -0.0000 -0.0000 1.0000
vn -0.0000 -1.0000 -0.0000
vn -0.0000 1.0000 -0.0000
vt 0.000000 0.000000
vt 0.500000 0.500000
vt 0.000071 0.000071
vt 0.500000 0.000071
vt 0.000071 0.999929
vt 0.500000 0.999929
vt 0.000071 0.500000
s 0
f 2//1 3//1 1//1
f 4//2 7//2 3//2
f 8//3 5//3 7//3
f 6/2/4 1/3/4 5/4/4
f 7//5 1//5 3//5
f 4/5/6 6/2/6 8/6/6
f 2//1 4/1/1 3//1
f 4//2 8//2 7//2
f 8/13 6//3 5//3
f 6/2/4 2/7/4 1/3/4
f 7//5 5//5 1//5
f 4/5/6 2/7/6 6/2/6
